<svg width="50" height="50" viewBox="0 0 50 50" fill="none" xmlns="http://www.w3.org/2000/svg">
<circle cx="25" cy="25" r="25" fill="#1E1E1E"/>
<g clip-path="url(#clip0_2_12)">
<path d="M22 16H18C17.4696 16 16.9609 16.2107 16.5858 16.5858C16.2107 16.9609 16 17.4696 16 18V22C16 22.5304 16.2107 23.0391 16.5858 23.4142C16.9609 23.7893 17.4696 24 18 24H22C22.5304 24 23.0391 23.7893 23.4142 23.4142C23.7893 23.0391 24 22.5304 24 22V18C24 17.4696 23.7893 16.9609 23.4142 16.5858C23.0391 16.2107 22.5304 16 22 16ZM18 22V18H22V22H18Z" fill="#FEFEFE"/>
<path d="M32 16H28C27.4696 16 26.9609 16.2107 26.5858 16.5858C26.2107 16.9609 26 17.4696 26 18V22C26 22.5304 26.2107 23.0391 26.5858 23.4142C26.9609 23.7893 27.4696 24 28 24H32C32.5304 24 33.0391 23.7893 33.4142 23.4142C33.7893 23.0391 34 22.5304 34 22V18C34 17.4696 33.7893 16.9609 33.4142 16.5858C33.0391 16.2107 32.5304 16 32 16ZM28 22V18H32V22H28Z" fill="#FEFEFE"/>
<path d="M22 26H18C17.4696 26 16.9609 26.2107 16.5858 26.5858C16.2107 26.9609 16 27.4696 16 28V32C16 32.5304 16.2107 33.0391 16.5858 33.4142C16.9609 33.7893 17.4696 34 18 34H22C22.5304 34 23.0391 33.7893 23.4142 33.4142C23.7893 33.0391 24 32.5304 24 32V28C24 27.4696 23.7893 26.9609 23.4142 26.5858C23.0391 26.2107 22.5304 26 22 26ZM18 32V28H22V32H18Z" fill="#FEFEFE"/>
<path d="M32 26H28C27.4696 26 26.9609 26.2107 26.5858 26.5858C26.2107 26.9609 26 27.4696 26 28V32C26 32.5304 26.2107 33.0391 26.5858 33.4142C26.9609 33.7893 27.4696 34 28 34H32C32.5304 34 33.0391 33.7893 33.4142 33.4142C33.7893 33.0391 34 32.5304 34 32V28C34 27.4696 33.7893 26.9609 33.4142 26.5858C33.0391 26.2107 32.5304 26 32 26ZM28 32V28H32V32H28Z" fill="#FEFEFE"/>
</g>
<defs>
<clipPath id="clip0_2_12">
<rect width="24" height="24" fill="white" transform="translate(13 13)"/>
</clipPath>
</defs>
</svg>
