<svg width="40" height="40" viewBox="0 0 40 40" fill="none" xmlns="http://www.w3.org/2000/svg">
<circle cx="20" cy="20" r="20" fill="#D8E9F9"/>
<g clip-path="url(#clip0_2_57)">
<path d="M20.3 30H20.2C18.8285 29.9895 17.4729 29.7056 16.2125 29.1647C14.9522 28.6238 13.8124 27.8369 12.86 26.85C11.0938 24.9613 10.0899 22.4853 10.0418 19.8999C9.99383 17.3145 10.9052 14.803 12.6 12.85C13.6919 11.6263 15.0645 10.6861 16.6 10.11C16.7791 10.041 16.9744 10.0251 17.1623 10.0641C17.3503 10.1032 17.523 10.1954 17.66 10.33C17.7868 10.4593 17.8761 10.6206 17.9184 10.7968C17.9606 10.9729 17.9543 11.1572 17.9 11.33C17.3519 12.8309 17.2434 14.457 17.587 16.0175C17.9306 17.578 18.7122 19.0081 19.84 20.14C20.9783 21.2643 22.4118 22.0433 23.9745 22.3866C25.5372 22.7299 27.1652 22.6236 28.67 22.08C28.8491 22.0169 29.0424 22.0062 29.2274 22.049C29.4124 22.0918 29.5814 22.1864 29.7146 22.3217C29.8478 22.457 29.9398 22.6274 29.9797 22.8131C30.0196 22.9987 30.0058 23.1919 29.94 23.37C29.4291 24.7337 28.6311 25.9717 27.6 27C26.6408 27.9563 25.5021 28.7136 24.2494 29.2285C22.9966 29.7433 21.6544 30.0055 20.3 30ZM15.46 12.92C14.9577 13.2723 14.4979 13.6817 14.09 14.14C12.7145 15.7161 11.9734 17.7469 12.0103 19.8385C12.0473 21.9301 12.8597 23.9334 14.29 25.46C15.0585 26.2582 15.9792 26.8942 16.9978 27.3305C18.0163 27.7667 19.112 27.9944 20.22 28H20.3C21.6262 27.9992 22.9331 27.6822 24.1122 27.0753C25.2914 26.4683 26.3088 25.5889 27.08 24.51C25.5083 24.7136 23.9109 24.5544 22.4104 24.0444C20.9099 23.5344 19.5463 22.6873 18.4242 21.5681C17.3021 20.449 16.4515 19.0875 15.9377 17.5883C15.4238 16.0892 15.2604 14.4922 15.46 12.92Z" fill="#1E1E1E"/>
</g>
<defs>
<clipPath id="clip0_2_57">
<rect width="24" height="24" fill="white" transform="translate(8 8)"/>
</clipPath>
</defs>
</svg>
