<svg width="50" height="50" viewBox="0 0 50 50" fill="none" xmlns="http://www.w3.org/2000/svg">
<circle cx="25" cy="25" r="25" fill="#1E1E1E"/>
<g clip-path="url(#clip0_2_13)">
<path d="M33.5201 28.21L31.7201 26.4V21.94C31.744 20.2838 31.1679 18.6749 30.0982 17.4104C29.0285 16.1458 27.5373 15.311 25.9001 15.06C24.9499 14.9349 23.9839 15.0138 23.0667 15.2916C22.1494 15.5694 21.3019 16.0395 20.5808 16.6708C19.8597 17.302 19.2814 18.0798 18.8847 18.9522C18.4879 19.8246 18.2818 20.7716 18.2801 21.73V26.4L16.4801 28.21C16.254 28.4399 16.1007 28.7313 16.0393 29.0478C15.9779 29.3643 16.0112 29.6919 16.135 29.9897C16.2587 30.2874 16.4675 30.542 16.7352 30.7217C17.0029 30.9014 17.3177 30.9982 17.6401 31H21.0001V31.34C21.0468 32.3552 21.494 33.3105 22.2438 33.9965C22.9936 34.6826 23.9847 35.0434 25.0001 35C26.0154 35.0434 27.0066 34.6826 27.7563 33.9965C28.5061 33.3105 28.9534 32.3552 29.0001 31.34V31H32.3601C32.6825 30.9982 32.9972 30.9014 33.2649 30.7217C33.5326 30.542 33.7414 30.2874 33.8652 29.9897C33.989 29.6919 34.0223 29.3643 33.9609 29.0478C33.8995 28.7313 33.7462 28.4399 33.5201 28.21ZM27.0001 31.34C26.9446 31.821 26.7057 32.2621 26.3331 32.5713C25.9606 32.8805 25.4831 33.0341 25.0001 33C24.5171 33.0341 24.0396 32.8805 23.667 32.5713C23.2944 32.2621 23.0555 31.821 23.0001 31.34V31H27.0001V31.34ZM18.5101 29L19.6901 27.82C19.8772 27.634 20.0257 27.4127 20.127 27.169C20.2283 26.9253 20.2803 26.6639 20.2801 26.4V21.73C20.2806 21.0554 20.4255 20.3887 20.7049 19.7747C20.9843 19.1607 21.3918 18.6136 21.9001 18.17C22.4015 17.7157 22.9956 17.3758 23.6414 17.1737C24.2872 16.9717 24.9691 16.9125 25.6401 17C26.7966 17.1878 27.8463 17.787 28.596 18.6874C29.3457 19.5878 29.7449 20.7287 29.7201 21.9V26.4C29.7186 26.6632 29.769 26.9242 29.8685 27.1678C29.9681 27.4115 30.1147 27.6331 30.3001 27.82L31.4901 29H18.5101Z" fill="#FEFEFE"/>
</g>
<defs>
<clipPath id="clip0_2_13">
<rect width="24" height="24" fill="white" transform="translate(13 13)"/>
</clipPath>
</defs>
</svg>
